<?xml version="1.0" encoding="UTF-8" standalone="no"?>
<!-- Created with Inkscape (http://www.inkscape.org/) -->

<svg
   width="196.30611mm"
   height="236.51453mm"
   viewBox="0 0 196.30611 236.51453"
   version="1.1"
   id="svg5"
   inkscape:version="1.1.2 (0a00cf5339, 2022-02-04)"
   sodipodi:docname="amogus.svg"
   xmlns:inkscape="http://www.inkscape.org/namespaces/inkscape"
   xmlns:sodipodi="http://sodipodi.sourceforge.net/DTD/sodipodi-0.dtd"
   xmlns="http://www.w3.org/2000/svg"
   xmlns:svg="http://www.w3.org/2000/svg">
  <sodipodi:namedview
     id="namedview7"
     pagecolor="#505050"
     bordercolor="#eeeeee"
     borderopacity="1"
     inkscape:pageshadow="0"
     inkscape:pageopacity="0"
     inkscape:pagecheckerboard="0"
     inkscape:document-units="mm"
     showgrid="false"
     fit-margin-top="0"
     fit-margin-left="0"
     fit-margin-right="0"
     fit-margin-bottom="0"
     inkscape:zoom="0.44364478"
     inkscape:cx="290.77317"
     inkscape:cy="438.41381"
     inkscape:window-width="1366"
     inkscape:window-height="681"
     inkscape:window-x="0"
     inkscape:window-y="25"
     inkscape:window-maximized="1"
     inkscape:current-layer="layer1" />
  <defs
     id="defs2" />
  <g
     inkscape:label="Layer 1"
     inkscape:groupmode="layer"
     id="layer1"
     transform="translate(-4.8232341,-27.911296)">
    <path
       style="fill:#131516;stroke:none;stroke-width:1.016"
       d="m 44.364442,205.86245 c -10.022738,-0.43079 -20.917713,-3.04496 -30.476037,1.37464 -8.4077049,3.8862 -12.273179,15.58443 -5.8679085,22.96567 13.3863075,15.42491 56.6954415,14.19047 72.9199485,4.11277 7.89736,-4.90424 12.28547,-14.15898 12.06093,-23.37308 -0.17373,-7.1628 -3.30301,-16.40942 3.39649,-21.77898 7.842495,-6.28599 31.820105,-5.91007 39.189155,0.84328 6.11225,5.60121 7.36092,27.7622 0.92557,33.62249 -9.04646,8.23671 -37.602159,7.78256 -24.08123,28.95397 13.50264,21.14194 58.06034,9.45388 75.18908,-0.32817 17.03832,-9.73023 12.80566,-37.50564 13.22324,-54.52059 0.89205,-36.44494 0.13716,-75.08444 -8.78027,-110.743991 -4.06603,-16.26108 -8.9408,-33.25175 -20.79041,-45.705065 -13.99235,-14.704333 -40.0497,-14.386843 -58.83656,-12.375488 -7.32333,0.784047 -15.174979,1.389379 -21.244555,6.050583 -8.6041,6.607658 -12.57951,19.798488 -15.99784,29.67797 -6.43372,18.594527 -10.080953,38.650461 -13.963698,57.911991 -5.487619,27.2227 -14.607439,55.66156 -16.865905,83.312 m 3.048,8.128 c 3.824935,-28.40432 11.30239,-57.35219 17.627092,-85.344 4.594551,-20.33401 8.076691,-41.105421 14.549421,-60.959991 2.99893,-9.199169 6.89783,-22.412858 14.74643,-28.651098 4.803646,-3.817417 11.240005,-4.318813 17.085055,-5.152035 17.37563,-2.477008 44.0436,-2.359355 56.71922,11.466068 24.79141,27.039011 24.34336,72.492196 26.68422,106.665056 1.09017,15.92884 2.97485,32.8676 1.21107,48.768 -1.49453,13.47622 3.49911,37.58387 -9.44575,46.17821 -13.02207,8.64616 -27.81808,9.25779 -42.65676,11.00735 -8.59841,1.01498 -20.98345,0.0853 -26.76855,-7.50824 -12.08228,-15.85773 15.68704,-17.23136 22.59381,-22.76348 8.90422,-7.13131 7.57021,-33.4132 -0.0813,-40.92144 -9.14197,-8.97128 -33.5656,-9.00684 -44.496735,-3.09778 -17.2276,9.31367 0.46431,34.53994 -16.27521,45.85614 -13.111171,8.86257 -37.073226,7.28777 -51.812033,4.32105 -5.201514,-1.04648 -13.142975,-2.34188 -16.517822,-6.88441 -4.551783,-6.12648 0.434543,-13.10234 6.358635,-15.53668 10.616082,-4.36168 20.494549,-0.0396 30.479187,2.55728 M 124.62842,58.97751 c -11.21764,1.607109 -42.009035,13.904671 -22.30728,28.365704 9.04545,6.639052 28.93365,5.9563 39.5793,4.422242 12.98245,-1.870761 26.57551,-15.987776 13.09726,-27.743201 -7.49707,-6.538773 -21.09623,-6.373266 -30.36926,-5.044745 M 98.939121,76.126403 c 6.903589,-12.239661 35.345049,-15.206062 47.404969,-12.255801 5.32384,1.302411 12.15107,7.161845 8.64993,14.110066 0.5581,5.783763 -7.77558,7.733964 -13.16041,8.790237 -12.1666,1.566382 -38.97213,6.542732 -42.894489,-10.644502 z"
       id="path138"
       sodipodi:nodetypes="cccccccccccccsccccccccccccccccccccccccccsccsccc" />
    <path
       style="fill:#d8efff;fill-opacity:1;stroke-width:0.596387"
       d="m 128.71441,256.8466 c -6.7359,-1.76066 -10.63361,-4.70128 -13.34827,-10.0706 -2.75452,-5.44815 1.02886,-9.70833 12.15549,-13.6874 2.46009,-0.87977 5.94895,-2.13281 7.75302,-2.78452 4.21115,-1.52127 7.20128,-4.53684 8.97679,-9.05318 1.25799,-3.19994 1.40956,-4.5558 1.43335,-12.82229 0.023,-7.98223 -0.15725,-9.82873 -1.32039,-13.52813 -1.83549,-5.83783 -4.34711,-8.97033 -9.1162,-11.36975 -6.16464,-3.10154 -10.46813,-3.95333 -19.95247,-3.94917 -16.090963,0.007 -25.074713,4.23868 -27.714334,13.05432 -0.390972,1.30573 -0.906214,7.74152 -1.144982,14.30176 -0.385384,10.58847 -0.588417,12.27773 -1.808271,15.04505 -3.209723,7.28146 -11.261888,11.61021 -24.756509,13.30878 -14.183383,1.78528 -39.40184,-1.55454 -46.311558,-6.13327 -1.119485,-0.74183 -2.657659,-2.60225 -3.418163,-4.13427 -1.1703271,-2.35759 -1.2902495,-3.12044 -0.7806689,-4.96599 1.4025039,-5.07945 6.4410189,-8.70235 13.7367579,-9.87729 4.303039,-0.69299 10.647359,0.19349 19.122207,2.67189 2.77804,0.81241 5.127389,1.40071 5.220777,1.30732 0.09339,-0.0934 0.962718,-4.97707 1.931847,-10.85263 2.306023,-13.98081 4.953595,-26.73185 11.13396,-53.6226 2.789349,-12.13644 6.675308,-29.58072 8.63546,-38.76506 8.80369,-41.249758 15.803801,-62.064147 23.44153,-69.70188 3.937844,-3.937843 7.218722,-5.277555 16.545277,-6.75609 8.38135,-1.328693 29.8027,-1.500696 35.38956,-0.284161 9.62753,2.096389 17.21917,5.594134 21.9939,10.1334 3.61191,3.433791 8.82995,10.734725 11.83791,16.563276 9.06456,17.564473 12.75198,35.437688 15.06191,73.006305 0.51428,8.3643 1.33274,20.70948 1.81881,27.43373 1.19025,16.46612 1.28009,25.89894 0.47143,49.5 -0.7238,21.12472 -1.1104,23.97977 -4.02623,29.73389 -1.87344,3.69704 -4.64762,6.09887 -10.36174,8.97098 -7.68895,3.86472 -14.90367,5.58658 -31.42852,7.50071 -9.93134,1.15038 -16.30768,1.09824 -21.17168,-0.17313 z M 133.9295,92.728413 c 8.86554,-0.605387 14.18488,-1.900671 17.72179,-4.315338 9.27337,-6.330987 11.62883,-14.471464 6.28853,-21.733144 -2.5565,-3.476303 -6.76226,-5.961184 -12.57927,-7.43218 -4.33267,-1.095643 -6.10552,-1.220002 -13.35562,-0.936853 -9.94482,0.38839 -14.56806,1.535028 -23.3304,5.786313 -6.22973,3.022523 -11.059555,6.93906 -12.174937,9.872752 -0.848707,2.232261 -0.719683,6.037226 0.269576,7.950251 1.122362,2.170408 5.035461,5.673071 8.063811,7.218018 3.36418,1.716281 8.82747,3.025809 14.86924,3.564096 2.82463,0.251656 5.26987,0.490998 5.43387,0.531874 0.16401,0.04085 4.12104,-0.186733 8.79341,-0.505789 z"
       id="path14987" />
    <path
       style="fill:#495c65;fill-opacity:1;stroke-width:0.210854"
       d="m 118.19307,88.424391 c -4.91312,-0.316632 -8.46835,-1.189399 -11.80783,-2.89869 -3.4145,-1.747692 -6.17923,-5.062524 -7.089724,-8.500372 -0.253947,-0.958858 -0.245324,-0.993682 0.495938,-2.003112 1.143306,-1.556922 3.280776,-3.513643 5.138306,-4.703803 1.59093,-1.019333 2.13594,-1.275521 1.89943,-0.892836 -0.0594,0.09618 -0.20582,0.786741 -0.32529,1.534583 -0.62934,3.939479 1.53849,7.610441 5.80504,9.830142 2.87826,1.497435 6.37479,2.186934 13.2191,2.606749 4.24035,0.26009 14.40012,0.143626 19.75979,-0.226513 6.93824,-0.479155 7.31604,-0.484912 6.85276,-0.104457 -0.67255,0.552309 -3.04285,1.689478 -4.53336,2.174909 -3.17895,1.03532 -7.48715,1.776659 -15.50957,2.668826 -2.53057,0.281424 -10.54456,0.788021 -11.16348,0.705688 -0.11597,-0.01542 -1.34947,-0.101428 -2.74111,-0.191114 z"
       id="path33066" />
    <path
       style="fill:#9bc5d5;fill-opacity:1;stroke-width:0.210854"
       d="m 123.04272,83.146899 c -6.95253,-0.637633 -10.69972,-1.846149 -13.35945,-4.308586 -2.72774,-2.525414 -3.64078,-5.177065 -2.95625,-8.585584 l 0.23634,-1.176851 1.81948,-0.881345 c 9.14619,-4.430356 25.39038,-6.463988 36.05833,-4.514194 4.55159,0.831903 8.33272,3.443854 10.06791,6.954758 1.0087,2.040959 1.78308,3.620037 1.14971,5.694884 -1.33809,5.135694 -2.26076,6.35623 -6.24022,6.511795 -1.62213,0.06242 -4.32516,0.206565 -6.00672,0.320315 -3.61707,0.244679 -18.0507,0.234122 -20.76913,-0.01519 z"
       id="path41477"
       sodipodi:nodetypes="ssscsssccsss" />
    <ellipse
       style="fill:#fefefe;fill-opacity:1;stroke-width:0.264583"
       id="path47249"
       cx="139.96046"
       cy="68.470505"
       rx="9.8897743"
       ry="5.7496018" />
  </g>
</svg>
